<svg width="20" height="21" viewBox="0 0 30 31" fill="none" xmlns="http://www.w3.org/2000/svg">
<path d="M9 24.5C7.35 24.5 6.015 25.85 6.015 27.5C6.015 29.15 7.35 30.5 9 30.5C10.65 30.5 12 29.15 12 27.5C12 25.85 10.65 24.5 9 24.5ZM0 0.5V3.5H3L8.4 14.885L6.375 18.56C6.135 18.98 6 19.475 6 20C6 21.65 7.35 23 9 23H27V20H9.63C9.42 20 9.255 19.835 9.255 19.625L9.3 19.445L10.65 17H21.825C22.95 17 23.94 16.385 24.45 15.455L29.82 5.72C29.94 5.51 30 5.255 30 5C30 4.175 29.325 3.5 28.5 3.5H6.315L4.905 0.5H0ZM24 24.5C22.35 24.5 21.015 25.85 21.015 27.5C21.015 29.15 22.35 30.5 24 30.5C25.65 30.5 27 29.15 27 27.5C27 25.85 25.65 24.5 24 24.5Z" fill="black"/>
</svg>
