<svg width="25" height="25" viewBox="0 0 25 25" fill="none" xmlns="http://www.w3.org/2000/svg">
<path d="M12.3335 0.5C5.8283 0.5 0.333496 5.9948 0.333496 12.5C0.333496 19.0052 5.8283 24.5 12.3335 24.5C18.8387 24.5 24.3335 19.0052 24.3335 12.5C24.3335 5.9948 18.8387 0.5 12.3335 0.5ZM12.3335 6.5C14.4059 6.5 15.9335 8.0264 15.9335 10.1C15.9335 12.1736 14.4059 13.7 12.3335 13.7C10.2623 13.7 8.7335 12.1736 8.7335 10.1C8.7335 8.0264 10.2623 6.5 12.3335 6.5ZM6.2063 18.2264C7.2827 16.6424 9.0779 15.5864 11.1335 15.5864H13.5335C15.5903 15.5864 17.3843 16.6424 18.4607 18.2264C16.9271 19.868 14.7515 20.9 12.3335 20.9C9.9155 20.9 7.7399 19.868 6.2063 18.2264Z" fill="black"/>
</svg>
