<svg width="306" height="33" viewBox="0 0 306 33" fill="none" xmlns="http://www.w3.org/2000/svg">
<path d="M17.2367 26.9259L16.7729 26.6831L16.3091 26.9259L7.72368 31.4206L7.72208 31.4215C7.60889 31.481 7.48129 31.5076 7.35377 31.4982C7.22625 31.4888 7.10392 31.4438 7.00069 31.3683C6.89746 31.2928 6.81747 31.1899 6.76982 31.0713C6.72217 30.9526 6.70876 30.823 6.73113 30.6971L6.73113 30.697L8.41454 21.2194L8.50737 20.6968L8.12654 20.3271L1.19692 13.5993C1.11105 13.5122 1.05007 13.4037 1.02041 13.2851C0.991064 13.1677 0.993416 13.0447 1.02714 12.9286C1.06736 12.8108 1.13904 12.7061 1.23449 12.626C1.33233 12.5439 1.45124 12.4908 1.57773 12.4728L1.58111 12.4723L11.1766 11.0751L11.6988 10.9991L11.9307 10.525L16.1561 1.88913L16.1578 1.88552C16.2138 1.76997 16.3012 1.67253 16.4099 1.60435C16.5187 1.53616 16.6445 1.5 16.7729 1.5C16.9013 1.5 17.0271 1.53616 17.1358 1.60435C17.2446 1.67253 17.332 1.76997 17.388 1.88552L17.3879 1.88554L17.3921 1.89404L21.668 10.5131L21.901 10.9827L22.4197 11.0583L32.0152 12.4555L32.0186 12.456C32.145 12.474 32.264 12.527 32.3618 12.6092C32.4572 12.6893 32.5289 12.794 32.5691 12.9118C32.6029 13.0279 32.6052 13.1509 32.5759 13.2682C32.5462 13.3869 32.4853 13.4954 32.3994 13.5824L25.4697 20.3102L25.0889 20.68L25.1817 21.2026L26.8652 30.6802L26.8651 30.6802L26.8674 30.6924C26.8918 30.8205 26.879 30.9529 26.8306 31.074C26.7828 31.1935 26.7022 31.2971 26.5982 31.3728C26.4753 31.4575 26.328 31.4997 26.1788 31.4928L26.1327 32.4917L26.1286 31.4917C26.0205 31.4922 25.9138 31.4669 25.8173 31.4181L17.2367 26.9259Z" stroke="#FFAE5D" stroke-width="2"/>
<path d="M65.8329 26.9259L65.3691 26.6831L64.9053 26.9259L56.3199 31.4206L56.3183 31.4215C56.2051 31.481 56.0775 31.5076 55.95 31.4982C55.8224 31.4888 55.7001 31.4438 55.5969 31.3683C55.4937 31.2928 55.4137 31.1899 55.366 31.0713C55.3184 30.9526 55.305 30.823 55.3273 30.6971L55.3273 30.697L57.0107 21.2194L57.1036 20.6968L56.7227 20.3271L49.7931 13.5993C49.7072 13.5122 49.6463 13.4037 49.6166 13.2851C49.5873 13.1677 49.5896 13.0447 49.6233 12.9286C49.6636 12.8108 49.7352 12.7061 49.8307 12.626C49.9285 12.5439 50.0474 12.4908 50.1739 12.4728L50.1773 12.4723L59.7727 11.0751L60.295 10.9991L60.5269 10.525L64.7523 1.88913L64.754 1.88552C64.81 1.76997 64.8973 1.67253 65.0061 1.60435C65.1149 1.53616 65.2407 1.5 65.3691 1.5C65.4975 1.5 65.6233 1.53616 65.732 1.60435C65.8408 1.67253 65.9282 1.76997 65.9842 1.88552L65.9841 1.88554L65.9883 1.89404L70.2642 10.5131L70.4972 10.9827L71.0159 11.0583L80.6114 12.4555L80.6147 12.456C80.7412 12.474 80.8601 12.527 80.958 12.6092C81.0534 12.6893 81.1251 12.794 81.1653 12.9118C81.1991 13.0279 81.2014 13.1509 81.1721 13.2682C81.1424 13.3869 81.0814 13.4954 80.9956 13.5824L74.0659 20.3102L73.6851 20.68L73.7779 21.2026L75.4613 30.6802L75.4613 30.6802L75.4636 30.6924C75.488 30.8205 75.4752 30.9529 75.4268 31.074C75.379 31.1935 75.2984 31.2971 75.1944 31.3728C75.0715 31.4575 74.9242 31.4997 74.775 31.4928L74.7288 32.4917L74.7248 31.4917C74.6167 31.4922 74.51 31.4669 74.4135 31.4181L65.8329 26.9259Z" stroke="#FFAE5D" stroke-width="2"/>
<path d="M114.237 26.9259L113.773 26.6831L113.309 26.9259L104.724 31.4206L104.722 31.4215C104.609 31.481 104.481 31.5076 104.354 31.4982C104.226 31.4888 104.104 31.4438 104.001 31.3683C103.897 31.2928 103.817 31.1899 103.77 31.0713C103.722 30.9526 103.709 30.823 103.731 30.6971L103.731 30.697L105.415 21.2194L105.507 20.6968L105.127 20.3271L98.1969 13.5993C98.111 13.5122 98.0501 13.4037 98.0204 13.2851C97.9911 13.1677 97.9934 13.0447 98.0271 12.9286C98.0674 12.8108 98.139 12.7061 98.2345 12.626C98.3323 12.5439 98.4512 12.4908 98.5777 12.4728L98.5811 12.4723L108.177 11.0751L108.699 10.9991L108.931 10.525L113.156 1.88913L113.158 1.88552C113.214 1.76997 113.301 1.67253 113.41 1.60435C113.519 1.53616 113.645 1.5 113.773 1.5C113.901 1.5 114.027 1.53616 114.136 1.60435C114.245 1.67253 114.332 1.76997 114.388 1.88552L114.388 1.88554L114.392 1.89404L118.668 10.5131L118.901 10.9827L119.42 11.0583L129.015 12.4555L129.019 12.456C129.145 12.474 129.264 12.527 129.362 12.6092C129.457 12.6893 129.529 12.794 129.569 12.9118C129.603 13.0279 129.605 13.1509 129.576 13.2682C129.546 13.3869 129.485 13.4954 129.399 13.5824L122.47 20.3102L122.089 20.68L122.182 21.2026L123.865 30.6802L123.865 30.6802L123.867 30.6924C123.892 30.8205 123.879 30.9529 123.831 31.074C123.783 31.1935 123.702 31.2971 123.598 31.3728C123.475 31.4575 123.328 31.4997 123.179 31.4928L123.133 32.4917L123.129 31.4917C123.02 31.4922 122.914 31.4669 122.817 31.4181L114.237 26.9259Z" stroke="#FFAE5D" stroke-width="2"/>
<path d="M163.237 26.9259L162.773 26.6831L162.309 26.9259L153.724 31.4206L153.722 31.4215C153.609 31.481 153.481 31.5076 153.354 31.4982C153.226 31.4888 153.104 31.4438 153.001 31.3683C152.897 31.2928 152.817 31.1899 152.77 31.0713C152.722 30.9526 152.709 30.823 152.731 30.6971L152.731 30.697L154.415 21.2194L154.507 20.6968L154.127 20.3271L147.197 13.5993C147.111 13.5122 147.05 13.4037 147.02 13.2851C146.991 13.1677 146.993 13.0447 147.027 12.9286C147.067 12.8108 147.139 12.7061 147.234 12.626C147.332 12.5439 147.451 12.4908 147.578 12.4728L147.581 12.4723L157.177 11.0751L157.699 10.9991L157.931 10.525L162.156 1.88913L162.158 1.88552C162.214 1.76997 162.301 1.67253 162.41 1.60435C162.519 1.53616 162.645 1.5 162.773 1.5C162.901 1.5 163.027 1.53616 163.136 1.60435C163.245 1.67253 163.332 1.76997 163.388 1.88552L163.388 1.88554L163.392 1.89404L167.668 10.5131L167.901 10.9827L168.42 11.0583L178.015 12.4555L178.019 12.456C178.145 12.474 178.264 12.527 178.362 12.6092C178.457 12.6893 178.529 12.794 178.569 12.9118C178.603 13.0279 178.605 13.1509 178.576 13.2682C178.546 13.3869 178.485 13.4954 178.399 13.5824L171.47 20.3102L171.089 20.68L171.182 21.2026L172.865 30.6802L172.865 30.6802L172.867 30.6924C172.892 30.8205 172.879 30.9529 172.831 31.074C172.783 31.1935 172.702 31.2971 172.598 31.3728C172.475 31.4575 172.328 31.4997 172.179 31.4928L172.133 32.4917L172.129 31.4917C172.02 31.4922 171.914 31.4669 171.817 31.4181L163.237 26.9259Z" stroke="#FFAE5D" stroke-width="2"/>
<path d="M212.237 26.9259L211.773 26.6831L211.309 26.9259L202.724 31.4206L202.722 31.4215C202.609 31.481 202.481 31.5076 202.354 31.4982C202.226 31.4888 202.104 31.4438 202.001 31.3683C201.897 31.2928 201.817 31.1899 201.77 31.0713C201.722 30.9526 201.709 30.823 201.731 30.6971L201.731 30.697L203.415 21.2194L203.507 20.6968L203.127 20.3271L196.197 13.5993C196.111 13.5122 196.05 13.4037 196.02 13.2851C195.991 13.1677 195.993 13.0447 196.027 12.9286C196.067 12.8108 196.139 12.7061 196.234 12.626C196.332 12.5439 196.451 12.4908 196.578 12.4728L196.581 12.4723L206.177 11.0751L206.699 10.9991L206.931 10.525L211.156 1.88913L211.158 1.88552C211.214 1.76997 211.301 1.67253 211.41 1.60435C211.519 1.53616 211.645 1.5 211.773 1.5C211.901 1.5 212.027 1.53616 212.136 1.60435C212.245 1.67253 212.332 1.76997 212.388 1.88552L212.388 1.88554L212.392 1.89404L216.668 10.5131L216.901 10.9827L217.42 11.0583L227.015 12.4555L227.019 12.456C227.145 12.474 227.264 12.527 227.362 12.6092C227.457 12.6893 227.529 12.794 227.569 12.9118C227.603 13.0279 227.605 13.1509 227.576 13.2682C227.546 13.3869 227.485 13.4954 227.399 13.5824L220.47 20.3102L220.089 20.68L220.182 21.2026L221.865 30.6802L221.865 30.6802L221.867 30.6924C221.892 30.8205 221.879 30.9529 221.831 31.074C221.783 31.1935 221.702 31.2971 221.598 31.3728C221.475 31.4575 221.328 31.4997 221.179 31.4928L221.133 32.4917L221.129 31.4917C221.02 31.4922 220.914 31.4669 220.817 31.4181L212.237 26.9259Z" stroke="#FFAE5D" stroke-width="2"/>
<path d="M244.992 16.596C244.992 14.7613 245.291 13.332 245.888 12.308C246.485 11.2733 247.531 10.756 249.024 10.756C250.507 10.756 251.547 11.2733 252.144 12.308C252.741 13.332 253.04 14.7613 253.04 16.596C253.04 18.4627 252.741 19.9133 252.144 20.948C251.547 21.9827 250.507 22.5 249.024 22.5C247.531 22.5 246.485 21.9827 245.888 20.948C245.291 19.9133 244.992 18.4627 244.992 16.596ZM251.6 16.596C251.6 15.668 251.536 14.884 251.408 14.244C251.291 13.5933 251.04 13.0707 250.656 12.676C250.283 12.2813 249.739 12.084 249.024 12.084C248.299 12.084 247.744 12.2813 247.36 12.676C246.987 13.0707 246.736 13.5933 246.608 14.244C246.491 14.884 246.432 15.668 246.432 16.596C246.432 17.556 246.491 18.3613 246.608 19.012C246.736 19.6627 246.987 20.1853 247.36 20.58C247.744 20.9747 248.299 21.172 249.024 21.172C249.739 21.172 250.283 20.9747 250.656 20.58C251.04 20.1853 251.291 19.6627 251.408 19.012C251.536 18.3613 251.6 17.556 251.6 16.596ZM261.001 15.156C261.257 14.6547 261.619 14.2653 262.089 13.988C262.569 13.7107 263.15 13.572 263.833 13.572V15.076H263.449C261.817 15.076 261.001 15.9613 261.001 17.732V22.5H259.545V13.732H261.001V15.156ZM264.969 18.084C264.969 17.188 265.151 16.404 265.513 15.732C265.876 15.0493 266.372 14.5213 267.001 14.148C267.641 13.7747 268.351 13.588 269.129 13.588C269.897 13.588 270.564 13.7533 271.129 14.084C271.695 14.4147 272.116 14.8307 272.393 15.332V13.732H273.865V22.5H272.393V20.868C272.105 21.38 271.673 21.8067 271.097 22.148C270.532 22.4787 269.871 22.644 269.113 22.644C268.335 22.644 267.631 22.452 267.001 22.068C266.372 21.684 265.876 21.1453 265.513 20.452C265.151 19.7587 264.969 18.9693 264.969 18.084ZM272.393 18.1C272.393 17.4387 272.26 16.8627 271.993 16.372C271.727 15.8813 271.364 15.508 270.905 15.252C270.457 14.9853 269.961 14.852 269.417 14.852C268.873 14.852 268.377 14.98 267.929 15.236C267.481 15.492 267.124 15.8653 266.857 16.356C266.591 16.8467 266.457 17.4227 266.457 18.084C266.457 18.756 266.591 19.3427 266.857 19.844C267.124 20.3347 267.481 20.7133 267.929 20.98C268.377 21.236 268.873 21.364 269.417 21.364C269.961 21.364 270.457 21.236 270.905 20.98C271.364 20.7133 271.727 20.3347 271.993 19.844C272.26 19.3427 272.393 18.7613 272.393 18.1ZM278.102 14.932V20.1C278.102 20.5267 278.192 20.8307 278.374 21.012C278.555 21.1827 278.87 21.268 279.318 21.268H280.39V22.5H279.078C278.267 22.5 277.659 22.3133 277.254 21.94C276.848 21.5667 276.646 20.9533 276.646 20.1V14.932H275.51V13.732H276.646V11.524H278.102V13.732H280.39V14.932H278.102ZM282.906 12.308C282.629 12.308 282.394 12.212 282.202 12.02C282.01 11.828 281.914 11.5933 281.914 11.316C281.914 11.0387 282.01 10.804 282.202 10.612C282.394 10.42 282.629 10.324 282.906 10.324C283.173 10.324 283.397 10.42 283.578 10.612C283.77 10.804 283.866 11.0387 283.866 11.316C283.866 11.5933 283.77 11.828 283.578 12.02C283.397 12.212 283.173 12.308 282.906 12.308ZM283.61 13.732V22.5H282.154V13.732H283.61ZM290.363 13.572C291.43 13.572 292.294 13.8973 292.955 14.548C293.617 15.188 293.947 16.116 293.947 17.332V22.5H292.507V17.54C292.507 16.6653 292.289 15.9987 291.851 15.54C291.414 15.0707 290.817 14.836 290.059 14.836C289.291 14.836 288.678 15.076 288.219 15.556C287.771 16.036 287.547 16.7347 287.547 17.652V22.5H286.091V13.732H287.547V14.98C287.835 14.532 288.225 14.1853 288.715 13.94C289.217 13.6947 289.766 13.572 290.363 13.572ZM299.942 13.588C300.699 13.588 301.36 13.7533 301.926 14.084C302.502 14.4147 302.928 14.8307 303.206 15.332V13.732H304.678V22.692C304.678 23.492 304.507 24.2013 304.166 24.82C303.824 25.4493 303.334 25.94 302.694 26.292C302.064 26.644 301.328 26.82 300.486 26.82C299.334 26.82 298.374 26.548 297.606 26.004C296.838 25.46 296.384 24.7187 296.246 23.78H297.686C297.846 24.3133 298.176 24.74 298.678 25.06C299.179 25.3907 299.782 25.556 300.486 25.556C301.286 25.556 301.936 25.3053 302.438 24.804C302.95 24.3027 303.206 23.5987 303.206 22.692V20.852C302.918 21.364 302.491 21.7907 301.926 22.132C301.36 22.4733 300.699 22.644 299.942 22.644C299.163 22.644 298.454 22.452 297.814 22.068C297.184 21.684 296.688 21.1453 296.326 20.452C295.963 19.7587 295.782 18.9693 295.782 18.084C295.782 17.188 295.963 16.404 296.326 15.732C296.688 15.0493 297.184 14.5213 297.814 14.148C298.454 13.7747 299.163 13.588 299.942 13.588ZM303.206 18.1C303.206 17.4387 303.072 16.8627 302.806 16.372C302.539 15.8813 302.176 15.508 301.718 15.252C301.27 14.9853 300.774 14.852 300.23 14.852C299.686 14.852 299.19 14.98 298.742 15.236C298.294 15.492 297.936 15.8653 297.67 16.356C297.403 16.8467 297.27 17.4227 297.27 18.084C297.27 18.756 297.403 19.3427 297.67 19.844C297.936 20.3347 298.294 20.7133 298.742 20.98C299.19 21.236 299.686 21.364 300.23 21.364C300.774 21.364 301.27 21.236 301.718 20.98C302.176 20.7133 302.539 20.3347 302.806 19.844C303.072 19.3427 303.206 18.7613 303.206 18.1Z" fill="#FFAE5D"/>
</svg>
